<svg xmlns="http://www.w3.org/2000/svg" xml:space="preserve" width="512" height="512">
  <path fill="#788C23" d="M437.54 429.55H170.01v-24.34c0-3.31-2.69-6-6-6h-22.14v-91.59c9.72-1.69 17.13-10.17 17.13-20.36v-72.37c0-10.19-7.41-18.66-17.13-20.35v-36.46c.01-68.01 55.35-123.35 123.37-123.35 66.18 0 120.34 52.39 123.23 117.87-18.26 2.94-32.25 18.81-32.25 37.89v38.21c-14.62 2.82-25.7 15.7-25.7 31.13 0 3.32 2.69 6 6 6h25.76v5.64c0 11.4 9.28 20.68 20.68 20.68h23.28c11.41 0 20.68-9.28 20.68-20.68v-5.64h25.77c3.31 0 6-2.68 6-6 0-15.43-11.08-28.31-25.7-31.13v-38.21c0-19.17-14.12-35.1-32.51-37.94-2.92-72.08-62.46-129.81-135.24-129.81-74.64 0-135.37 60.72-135.37 135.36V194.54c-9.71 1.69-17.12 10.16-17.12 20.35v72.38c0 10.19 7.41 18.66 17.12 20.35v91.59h-22.13c-3.32 0-6 2.69-6 6v24.35H73.99c-11.4 0-20.68 9.27-20.68 20.68v18.35c0 11.4 9.28 20.68 20.68 20.68h363.55c11.41 0 20.68-9.28 20.68-20.68v-18.35c0-11.41-9.27-20.69-20.68-20.69zm-22.61-158.08c0 4.79-3.9 8.68-8.69 8.68h-23.28c-4.78 0-8.68-3.89-8.68-8.68v-5.64h40.65v5.64zm6.06-80.98v43.64c0 3.32 2.69 6 6 6 8.77 0 16.22 5.77 18.77 13.7h-102.3c2.54-7.93 9.99-13.7 18.76-13.7 3.32 0 6-2.68 6-6v-43.64c0-14.55 11.84-26.39 26.39-26.39s26.38 11.84 26.38 26.39zm-296.24 96.78v-72.38c0-4.78 3.89-8.68 8.68-8.68h2.33c.04 0 .08.01.12.01.03 0 .07-.01.11-.01h2.33c4.79 0 8.68 3.9 8.68 8.68v72.38c0 4.78-3.89 8.68-8.68 8.68h-2.41c-.01 0-.02-.01-.04-.01-.01 0-.02.01-.03.01h-2.41c-4.79 0-8.68-3.9-8.68-8.68zm-11.01 123.94h44.27v18.35h-44.27v-18.35zm332.48 57.37c0 4.79-3.89 8.69-8.68 8.69H73.99c-4.79 0-8.68-3.9-8.68-8.69v-18.34c0-4.79 3.9-8.69 8.68-8.69h363.55c4.79 0 8.68 3.9 8.68 8.69v18.34z"/>
  <path fill="#DBF471" d="M445.76 253.83h-102.3c2.54-7.93 9.99-13.7 18.76-13.7 3.32 0 6-2.68 6-6v-43.64c0-14.55 11.84-26.39 26.39-26.39s26.38 11.84 26.38 26.39v43.64c0 3.32 2.69 6 6 6 8.77 0 16.22 5.77 18.77 13.7z"/>
  <path fill="#A9C352" d="M147 214.89v72.38c0 4.78-3.89 8.68-8.68 8.68h-2.41c-.01 0-.02-.01-.04-.01-.01 0-.02.01-.03.01h-2.41c-4.79 0-8.68-3.9-8.68-8.68v-72.38c0-4.78 3.89-8.68 8.68-8.68h2.33c.04 0 .08.01.12.01.03 0 .07-.01.11-.01h2.33c4.79 0 8.68 3.9 8.68 8.68zM446.22 450.24v18.34c0 4.79-3.89 8.69-8.68 8.69H73.99c-4.79 0-8.68-3.9-8.68-8.69v-18.34c0-4.79 3.9-8.69 8.68-8.69h363.55c4.79 0 8.68 3.9 8.68 8.69z"/>
</svg>
