<svg xmlns="http://www.w3.org/2000/svg" width="128" height="128" fill="none"><path fill="url(#a)" d="M97 108h-6l6 12h6l-6-12Z"/><path fill="url(#b)" d="M31 108h6l-6 12h-6l6-12Z"/><path fill="url(#c)" d="M41.275 108a8 8 0 0 1-7.353-4.849L17.631 65.139c-3.368-7.859-1.146-16.902 6.755-20.17C32.826 41.48 45.803 38 64 38c18.197 0 31.174 3.48 39.614 6.97 7.901 3.267 10.123 12.31 6.755 20.169L94.078 103.15A8 8 0 0 1 86.725 108h-45.45Z"/><g filter="url(#d)"><path fill="url(#e)" d="M31.904 108A16 16 0 0 1 16.58 96.598l-5.49-18.3C9.55 73.167 13.394 68 18.753 68h1.915a8 8 0 0 1 7.384 4.923l7.436 17.846A2 2 0 0 0 37.333 92h53.334a2 2 0 0 0 1.846-1.23l7.436-17.847A8 8 0 0 1 107.333 68h1.915c5.359 0 9.202 5.166 7.662 10.299l-5.489 18.299A16.002 16.002 0 0 1 96.095 108h-64.19Z"/></g><defs><linearGradient id="a" x1="96" x2="96" y1="104" y2="120" gradientUnits="userSpaceOnUse"><stop stop-color="#602E00"/><stop offset="1" stop-color="#A45914"/></linearGradient><linearGradient id="b" x1="32" x2="32" y1="104" y2="120" gradientUnits="userSpaceOnUse"><stop stop-color="#602E00"/><stop offset="1" stop-color="#A45914"/></linearGradient><linearGradient id="c" x1="63" x2="63" y1="38" y2="108" gradientUnits="userSpaceOnUse"><stop stop-color="#21BED2"/><stop offset="1" stop-color="#027E8E"/></linearGradient><linearGradient id="e" x1="64" x2="64" y1="68" y2="116" gradientUnits="userSpaceOnUse"><stop stop-color="#2BBED2"/><stop offset="1" stop-color="#0695A9"/></linearGradient><filter id="d" width="110.506" height="44" x="8.747" y="67" color-interpolation-filters="sRGB" filterUnits="userSpaceOnUse"><feFlood flood-opacity="0" result="BackgroundImageFix"/><feColorMatrix in="SourceAlpha" values="0 0 0 0 0 0 0 0 0 0 0 0 0 0 0 0 0 0 127 0"/><feOffset dy="1"/><feGaussianBlur stdDeviation=".5"/><feColorMatrix values="0 0 0 0 0 0 0 0 0 0 0 0 0 0 0 0 0 0 0.2 0"/><feBlend in2="BackgroundImageFix" result="effect1_dropShadow"/><feColorMatrix in="SourceAlpha" values="0 0 0 0 0 0 0 0 0 0 0 0 0 0 0 0 0 0 127 0"/><feOffset dy="1"/><feGaussianBlur stdDeviation="1"/><feColorMatrix values="0 0 0 0 0 0 0 0 0 0 0 0 0 0 0 0 0 0 0.1 0"/><feBlend in2="effect1_dropShadow" result="effect2_dropShadow"/><feBlend in="SourceGraphic" in2="effect2_dropShadow" result="shape"/></filter></defs></svg>